<?xml version="1.0" standalone="no"?>
<!DOCTYPE svg PUBLIC "-//W3C//DTD SVG 20010904//EN"
 "http://www.w3.org/TR/2001/REC-SVG-20010904/DTD/svg10.dtd">
<svg version="1.0" xmlns="http://www.w3.org/2000/svg"
 width="320.000000pt" height="310.000000pt" viewBox="0 0 320.000000 310.000000"
 preserveAspectRatio="xMidYMid meet">

<g transform="translate(0.000000,310.000000) scale(0.100000,-0.100000)"
fill="#000000" stroke="none">
<path d="M1385 3003 c-64 -8 -174 -35 -265 -64 -391 -127 -756 -477 -907 -869
-75 -195 -88 -272 -88 -535 0 -202 3 -242 22 -326 30 -127 65 -223 124 -339
81 -158 57 -174 218 148 l141 282 -11 73 c-17 105 -6 323 21 422 25 93 74 202
124 278 85 128 244 273 370 337 l68 35 139 277 c76 153 139 280 139 283 0 5
-46 4 -95 -2z"/>
<path d="M1720 3006 c0 -3 63 -131 139 -284 l139 -279 87 -48 c98 -55 239
-182 317 -285 143 -187 209 -449 179 -707 l-12 -101 138 -277 c77 -152 143
-277 148 -277 14 0 111 186 146 282 62 172 74 250 74 505 0 240 -5 280 -55
440 -113 367 -404 702 -772 893 -75 38 -254 100 -353 121 -69 14 -175 25 -175
17z"/>
<path d="M859 1534 c-404 -807 -736 -1471 -737 -1476 -2 -4 117 -7 270 -6
l273 3 56 110 c31 60 61 111 66 112 5 2 49 -19 97 -46 136 -76 272 -126 431
-158 128 -25 433 -25 565 0 164 32 356 106 477 183 l51 33 15 -22 c8 -12 35
-66 61 -119 l47 -98 275 0 c152 0 274 4 272 8 -21 55 -1472 2942 -1478 2942
-4 0 -338 -660 -741 -1466z m1034 -208 c158 -316 287 -579 287 -586 0 -38
-180 -128 -345 -172 -116 -31 -352 -31 -480 1 -93 22 -298 116 -329 150 -16
17 -1 48 276 600 161 319 295 581 298 581 3 0 134 -258 293 -574z"/>
</g>
</svg>
